<?xml version="1.0" encoding="utf-8"?>
<!-- Generator: Adobe Illustrator 24.3.0, SVG Export Plug-In . SVG Version: 6.00 Build 0)  -->
<svg version="1.1" id="Layer_1" xmlns="http://www.w3.org/2000/svg" xmlns:xlink="http://www.w3.org/1999/xlink" x="0px" y="0px"
	 viewBox="0 0 600 600" style="enable-background:new 0 0 600 600;" xml:space="preserve">
<style type="text/css">
	.st0{fill:none;stroke:#999999;stroke-width:15;stroke-linejoin:round;stroke-miterlimit:10;}
</style>
<polygon class="st0" points="554.9,245.5 495.7,354.2 468.5,343 439.7,455 418.7,440.6 409.4,434.2 379.9,455.5 247.8,551 
	314.2,455.5 350.2,403.8 372.6,424.6 390.8,358.7 409.4,291.8 443,317.4 484.5,181.5 "/>
<path class="st0" d="M390.8,358.7l-18.3,65.9l-22.4-20.8l-35.9,51.7h-252c0-98.6,79.9-178.5,178.5-178.5
	C303.7,277,359,309.5,390.8,358.7z"/>
<path class="st0" d="M419.3,455.5h-39.4l29.4-21.3l9.3,6.4C419.1,445.5,419.3,450.5,419.3,455.5z"/>
<circle class="st0" cx="240.8" cy="161.6" r="87.3"/>
</svg>
