<?xml version="1.0" encoding="utf-8"?>
<!-- Generator: Adobe Illustrator 24.3.0, SVG Export Plug-In . SVG Version: 6.00 Build 0)  -->
<svg version="1.1" id="Layer_1" xmlns="http://www.w3.org/2000/svg" xmlns:xlink="http://www.w3.org/1999/xlink" x="0px" y="0px"
	 viewBox="0 0 600 600" style="enable-background:new 0 0 600 600;" xml:space="preserve">
<style type="text/css">
	.st0{fill:none;stroke:#999999;stroke-width:15;stroke-linejoin:round;stroke-miterlimit:10;}
	.st1{fill:#999999;}
</style>
<rect x="148" y="89" class="st0" width="295" height="434"/>
<path class="st0" d="M186.8,133c-24.7,0-49.3,0-74,0"/>
<path class="st0" d="M185.2,479c-24.7,0-49.3,0-74,0"/>
<path class="st0" d="M185.2,366c-24.7,0-49.3,0-74,0"/>
<path class="st0" d="M186.2,253c-24.7,0-49.3,0-74,0"/>
<circle class="st0" cx="198.2" cy="253" r="18.5"/>
<circle class="st0" cx="198.2" cy="133" r="18.5"/>
<circle class="st0" cx="198.2" cy="479" r="18.5"/>
<circle class="st0" cx="198.2" cy="366" r="18.5"/>
<g>
	<g>
		<path class="st1" d="M270.8,263.3h9.6l30.5,71.1h-16.2l-19.1-48.6l-19.1,48.6h-16.2L270.8,263.3z M255,310.1h42V323h-42V310.1z"/>
		<path class="st1" d="M320.8,263.3h15v71.1h-15V263.3z M327.7,293.9h25.5c1.8,0,3.4-0.4,4.8-1.1c1.4-0.7,2.4-1.8,3.2-3.1
			c0.8-1.3,1.2-2.9,1.2-4.6c0-1.8-0.4-3.3-1.1-4.7c-0.8-1.4-1.8-2.4-3.2-3.1c-1.4-0.7-3-1.1-4.8-1.1h-25.5v-12.9h25.1
			c5,0,9.4,0.9,13.1,2.7c3.8,1.8,6.7,4.4,8.8,7.7c2.1,3.3,3.1,7.1,3.1,11.4c0,4.3-1,8.1-3.1,11.4c-2.1,3.3-5,5.8-8.8,7.6
			c-3.8,1.8-8.2,2.7-13.1,2.7h-25.1V293.9z"/>
		<path class="st1" d="M405.3,334.4h-15.6v-71.1h15.6V334.4z"/>
	</g>
</g>
</svg>
