<?xml version="1.0" encoding="utf-8"?>
<!-- Generator: Adobe Illustrator 24.3.0, SVG Export Plug-In . SVG Version: 6.00 Build 0)  -->
<svg version="1.1" id="Layer_1" xmlns="http://www.w3.org/2000/svg" xmlns:xlink="http://www.w3.org/1999/xlink" x="0px" y="0px"
	 viewBox="0 0 600 600" style="enable-background:new 0 0 600 600;" xml:space="preserve">
<style type="text/css">
	.st0{fill:none;stroke:#999999;stroke-width:15;stroke-linejoin:round;stroke-miterlimit:10;}
</style>
<path class="st0" d="M199.3,146.9c0,18.2,14.7,32.9,32.9,32.9c9.7,0,18.5-4.2,24.5-11v72.9h-74c6.7,6,11,14.8,11,24.5
	c0,18.2-14.7,32.9-32.9,32.9s-32.9-14.7-32.9-32.9c0-9.7,4.2-18.5,11-24.5H66.1V51h190.6v74c-6-6.7-14.8-11-24.5-11
	C214,114,199.3,128.7,199.3,146.9z"/>
<path class="st0" d="M352,184.8c-18.2,0-32.9,14.7-32.9,32.9c0,9.7,4.2,18.5,11,24.5h-72.9v-74c-6,6.7-14.8,11-24.5,11
	c-18.2,0-32.9-14.7-32.9-32.9s14.7-32.9,32.9-32.9c9.7,0,18.5,4.2,24.5,11V51.6h190.6v190.6h-74c6.7-6,11-14.8,11-24.5
	C384.9,199.5,370.2,184.8,352,184.8z"/>
<path class="st0" d="M161.4,299.6c18.2,0,32.9-14.7,32.9-32.9c0-9.7-4.2-18.5-11-24.5h72.9v74c6-6.7,14.8-11,24.5-11
	c18.2,0,32.9,14.7,32.9,32.9S298.8,371,280.7,371c-9.7,0-18.5-4.2-24.5-11v72.9H65.5V242.2h74c-6.7,6-11,14.8-11,24.5
	C128.5,284.9,143.2,299.6,161.4,299.6z"/>
<path class="st0" d="M384.9,419.2c3.8-17.8-7.5-35.3-25.2-39.1c-9.5-2.1-19,0.3-26.3,5.6l15.3-71.2l72.3,15.6
	c-5.3-7.3-7.6-16.8-5.6-26.3c3.8-17.8,21.3-29,39.1-25.2s29,21.3,25.2,39.1c-2.1,9.5-8,17.2-15.9,21.7l71.2,15.3L494.9,541
	l-186.4-40.1l15.6-72.3c4.5,7.9,12.1,13.8,21.7,15.9C363.5,448.3,381,437,384.9,419.2z"/>
</svg>
