<?xml version="1.0" encoding="utf-8"?>
<!-- Generator: Adobe Illustrator 24.3.0, SVG Export Plug-In . SVG Version: 6.00 Build 0)  -->
<svg version="1.1" id="Layer_1" xmlns="http://www.w3.org/2000/svg" xmlns:xlink="http://www.w3.org/1999/xlink" x="0px" y="0px"
	 viewBox="0 0 600 600" style="enable-background:new 0 0 600 600;" xml:space="preserve">
<style type="text/css">
	.st0{fill:none;stroke:#999999;stroke-width:15;stroke-linejoin:round;stroke-miterlimit:10;}
</style>
<path class="st0" d="M199,122.1c63.9-60.9,148.7-65.9,191-15.8c33.6,39.7,35.3,107.1,5,143c-36,42.7-95,14.6-137,54
	c-26.8,25.1-41.2,72.5-25,160c16.3-0.7,32.7-1.3,49-2c-18.2-76.4-4.7-107.6,11-122c15-13.7,29.3-9.4,73-26
	c28.9-10.9,59.8-22.7,78-42c39.5-42,34.3-136.6-12-189c-53.8-60.9-167.3-69.5-258-1C179.7,91.3,193.3,112.1,199,122.1z"/>
<circle class="st0" cx="263.2" cy="525.3" r="30"/>
</svg>
